<svg xmlns="http://www.w3.org/2000/svg" version="1.1" xmlns:xlink="http://www.w3.org/1999/xlink" xmlns:svgjs="http://svgjs.com/svgjs" width="1440" height="560" preserveAspectRatio="none" viewBox="0 0 1440 560">
  <g mask="url(&quot;#SvgjsMask1058&quot;)" fill="none">
    <rect width="1440" height="560" x="0" y="0" fill="rgba(73, 22, 177, 1)"></rect>
    <use xlink:href="#SvgjsSymbol1065" x="0" y="0"></use>
    <use xlink:href="#SvgjsSymbol1065" x="720" y="0"></use>
  </g>
  <defs>
    <mask id="SvgjsMask1058">
      <rect width="1440" height="560" fill="#ffffff"></rect>
    </mask>
    <path d="M-1 0 a1 1 0 1 0 2 0 a1 1 0 1 0 -2 0z" id="SvgjsPath1062"></path>
    <path d="M-3 0 a3 3 0 1 0 6 0 a3 3 0 1 0 -6 0z" id="SvgjsPath1059"></path>
    <path d="M-5 0 a5 5 0 1 0 10 0 a5 5 0 1 0 -10 0z" id="SvgjsPath1061"></path>
    <path d="M2 -2 L-2 2z" id="SvgjsPath1060"></path>
    <path d="M6 -6 L-6 6z" id="SvgjsPath1063"></path>
    <path d="M30 -30 L-30 30z" id="SvgjsPath1064"></path>
  </defs>
  <symbol id="SvgjsSymbol1065">
    <use xlink:href="#SvgjsPath1059" x="30" y="30" stroke="rgba(255, 255, 255, 1)"></use>
    <use xlink:href="#SvgjsPath1060" x="30" y="90" stroke="rgba(255, 255, 255, 1)"></use>
    <use xlink:href="#SvgjsPath1061" x="30" y="150" stroke="rgba(255, 255, 255, 1)"></use>
    <use xlink:href="#SvgjsPath1062" x="30" y="210" stroke="rgba(255, 255, 255, 1)"></use>
    <use xlink:href="#SvgjsPath1063" x="30" y="270" stroke="rgba(255, 255, 255, 1)"></use>
    <use xlink:href="#SvgjsPath1061" x="30" y="330" stroke="rgba(255, 255, 255, 1)"></use>
    <use xlink:href="#SvgjsPath1062" x="30" y="390" stroke="rgba(255, 255, 255, 1)"></use>
    <use xlink:href="#SvgjsPath1060" x="30" y="450" stroke="rgba(255, 255, 255, 1)"></use>
    <use xlink:href="#SvgjsPath1061" x="30" y="510" stroke="rgba(255, 255, 255, 1)"></use>
    <use xlink:href="#SvgjsPath1063" x="30" y="570" stroke="rgba(255, 255, 255, 1)"></use>
    <use xlink:href="#SvgjsPath1063" x="90" y="30" stroke="rgba(255, 255, 255, 1)"></use>
    <use xlink:href="#SvgjsPath1063" x="90" y="90" stroke="rgba(255, 255, 255, 1)"></use>
    <use xlink:href="#SvgjsPath1061" x="90" y="150" stroke="rgba(255, 255, 255, 1)"></use>
    <use xlink:href="#SvgjsPath1061" x="90" y="210" stroke="rgba(255, 255, 255, 1)"></use>
    <use xlink:href="#SvgjsPath1064" x="90" y="270" stroke="rgba(255, 255, 255, 1)" stroke-width="3"></use>
    <use xlink:href="#SvgjsPath1063" x="90" y="330" stroke="rgba(255, 255, 255, 1)"></use>
    <use xlink:href="#SvgjsPath1061" x="90" y="390" stroke="rgba(255, 255, 255, 1)"></use>
    <use xlink:href="#SvgjsPath1063" x="90" y="450" stroke="rgba(255, 255, 255, 1)"></use>
    <use xlink:href="#SvgjsPath1059" x="90" y="510" stroke="rgba(255, 255, 255, 1)"></use>
    <use xlink:href="#SvgjsPath1061" x="90" y="570" stroke="rgba(255, 255, 255, 1)"></use>
    <use xlink:href="#SvgjsPath1063" x="150" y="30" stroke="rgba(255, 255, 255, 1)"></use>
    <use xlink:href="#SvgjsPath1063" x="150" y="90" stroke="rgba(255, 255, 255, 1)"></use>
    <use xlink:href="#SvgjsPath1062" x="150" y="150" stroke="rgba(255, 255, 255, 1)"></use>
    <use xlink:href="#SvgjsPath1059" x="150" y="210" stroke="rgba(255, 255, 255, 1)"></use>
    <use xlink:href="#SvgjsPath1062" x="150" y="270" stroke="rgba(255, 255, 255, 1)"></use>
    <use xlink:href="#SvgjsPath1059" x="150" y="330" stroke="rgba(255, 255, 255, 1)"></use>
    <use xlink:href="#SvgjsPath1060" x="150" y="390" stroke="rgba(255, 255, 255, 1)"></use>
    <use xlink:href="#SvgjsPath1059" x="150" y="450" stroke="rgba(255, 255, 255, 1)"></use>
    <use xlink:href="#SvgjsPath1059" x="150" y="510" stroke="rgba(255, 255, 255, 1)"></use>
    <use xlink:href="#SvgjsPath1059" x="150" y="570" stroke="rgba(255, 255, 255, 1)"></use>
    <use xlink:href="#SvgjsPath1064" x="210" y="30" stroke="rgba(255, 255, 255, 1)" stroke-width="3"></use>
    <use xlink:href="#SvgjsPath1062" x="210" y="90" stroke="rgba(255, 255, 255, 1)"></use>
    <use xlink:href="#SvgjsPath1063" x="210" y="150" stroke="rgba(255, 255, 255, 1)"></use>
    <use xlink:href="#SvgjsPath1059" x="210" y="210" stroke="rgba(255, 255, 255, 1)"></use>
    <use xlink:href="#SvgjsPath1063" x="210" y="270" stroke="rgba(255, 255, 255, 1)"></use>
    <use xlink:href="#SvgjsPath1062" x="210" y="330" stroke="rgba(255, 255, 255, 1)"></use>
    <use xlink:href="#SvgjsPath1063" x="210" y="390" stroke="rgba(255, 255, 255, 1)"></use>
    <use xlink:href="#SvgjsPath1060" x="210" y="450" stroke="rgba(255, 255, 255, 1)"></use>
    <use xlink:href="#SvgjsPath1063" x="210" y="510" stroke="rgba(255, 255, 255, 1)"></use>
    <use xlink:href="#SvgjsPath1063" x="210" y="570" stroke="rgba(255, 255, 255, 1)"></use>
    <use xlink:href="#SvgjsPath1060" x="270" y="30" stroke="rgba(255, 255, 255, 1)"></use>
    <use xlink:href="#SvgjsPath1061" x="270" y="90" stroke="rgba(255, 255, 255, 1)"></use>
    <use xlink:href="#SvgjsPath1061" x="270" y="150" stroke="rgba(255, 255, 255, 1)"></use>
    <use xlink:href="#SvgjsPath1060" x="270" y="210" stroke="rgba(255, 255, 255, 1)"></use>
    <use xlink:href="#SvgjsPath1059" x="270" y="270" stroke="rgba(255, 255, 255, 1)"></use>
    <use xlink:href="#SvgjsPath1061" x="270" y="330" stroke="rgba(255, 255, 255, 1)"></use>
    <use xlink:href="#SvgjsPath1060" x="270" y="390" stroke="rgba(255, 255, 255, 1)"></use>
    <use xlink:href="#SvgjsPath1060" x="270" y="450" stroke="rgba(255, 255, 255, 1)"></use>
    <use xlink:href="#SvgjsPath1061" x="270" y="510" stroke="rgba(255, 255, 255, 1)"></use>
    <use xlink:href="#SvgjsPath1063" x="270" y="570" stroke="rgba(255, 255, 255, 1)"></use>
    <use xlink:href="#SvgjsPath1060" x="330" y="30" stroke="rgba(255, 255, 255, 1)"></use>
    <use xlink:href="#SvgjsPath1061" x="330" y="90" stroke="rgba(255, 255, 255, 1)"></use>
    <use xlink:href="#SvgjsPath1059" x="330" y="150" stroke="rgba(255, 255, 255, 1)"></use>
    <use xlink:href="#SvgjsPath1061" x="330" y="210" stroke="rgba(255, 255, 255, 1)"></use>
    <use xlink:href="#SvgjsPath1061" x="330" y="270" stroke="rgba(255, 255, 255, 1)"></use>
    <use xlink:href="#SvgjsPath1060" x="330" y="330" stroke="rgba(255, 255, 255, 1)"></use>
    <use xlink:href="#SvgjsPath1060" x="330" y="390" stroke="rgba(255, 255, 255, 1)"></use>
    <use xlink:href="#SvgjsPath1060" x="330" y="450" stroke="rgba(255, 255, 255, 1)"></use>
    <use xlink:href="#SvgjsPath1060" x="330" y="510" stroke="rgba(255, 255, 255, 1)"></use>
    <use xlink:href="#SvgjsPath1061" x="330" y="570" stroke="rgba(255, 255, 255, 1)"></use>
    <use xlink:href="#SvgjsPath1063" x="390" y="30" stroke="rgba(255, 255, 255, 1)"></use>
    <use xlink:href="#SvgjsPath1063" x="390" y="90" stroke="rgba(255, 255, 255, 1)"></use>
    <use xlink:href="#SvgjsPath1061" x="390" y="150" stroke="rgba(255, 255, 255, 1)"></use>
    <use xlink:href="#SvgjsPath1063" x="390" y="210" stroke="rgba(255, 255, 255, 1)"></use>
    <use xlink:href="#SvgjsPath1061" x="390" y="270" stroke="rgba(255, 255, 255, 1)"></use>
    <use xlink:href="#SvgjsPath1061" x="390" y="330" stroke="rgba(255, 255, 255, 1)"></use>
    <use xlink:href="#SvgjsPath1059" x="390" y="390" stroke="rgba(255, 255, 255, 1)"></use>
    <use xlink:href="#SvgjsPath1061" x="390" y="450" stroke="rgba(255, 255, 255, 1)"></use>
    <use xlink:href="#SvgjsPath1064" x="390" y="510" stroke="rgba(255, 255, 255, 1)" stroke-width="3"></use>
    <use xlink:href="#SvgjsPath1063" x="390" y="570" stroke="rgba(255, 255, 255, 1)"></use>
    <use xlink:href="#SvgjsPath1061" x="450" y="30" stroke="rgba(255, 255, 255, 1)"></use>
    <use xlink:href="#SvgjsPath1061" x="450" y="90" stroke="rgba(255, 255, 255, 1)"></use>
    <use xlink:href="#SvgjsPath1063" x="450" y="150" stroke="rgba(255, 255, 255, 1)"></use>
    <use xlink:href="#SvgjsPath1059" x="450" y="210" stroke="rgba(255, 255, 255, 1)"></use>
    <use xlink:href="#SvgjsPath1059" x="450" y="270" stroke="rgba(255, 255, 255, 1)"></use>
    <use xlink:href="#SvgjsPath1061" x="450" y="330" stroke="rgba(255, 255, 255, 1)"></use>
    <use xlink:href="#SvgjsPath1063" x="450" y="390" stroke="rgba(255, 255, 255, 1)"></use>
    <use xlink:href="#SvgjsPath1061" x="450" y="450" stroke="rgba(255, 255, 255, 1)"></use>
    <use xlink:href="#SvgjsPath1063" x="450" y="510" stroke="rgba(255, 255, 255, 1)"></use>
    <use xlink:href="#SvgjsPath1060" x="450" y="570" stroke="rgba(255, 255, 255, 1)"></use>
    <use xlink:href="#SvgjsPath1059" x="510" y="30" stroke="rgba(255, 255, 255, 1)"></use>
    <use xlink:href="#SvgjsPath1061" x="510" y="90" stroke="rgba(255, 255, 255, 1)"></use>
    <use xlink:href="#SvgjsPath1060" x="510" y="150" stroke="rgba(255, 255, 255, 1)"></use>
    <use xlink:href="#SvgjsPath1060" x="510" y="210" stroke="rgba(255, 255, 255, 1)"></use>
    <use xlink:href="#SvgjsPath1063" x="510" y="270" stroke="rgba(255, 255, 255, 1)"></use>
    <use xlink:href="#SvgjsPath1060" x="510" y="330" stroke="rgba(255, 255, 255, 1)"></use>
    <use xlink:href="#SvgjsPath1060" x="510" y="390" stroke="rgba(255, 255, 255, 1)"></use>
    <use xlink:href="#SvgjsPath1062" x="510" y="450" stroke="rgba(255, 255, 255, 1)"></use>
    <use xlink:href="#SvgjsPath1063" x="510" y="510" stroke="rgba(255, 255, 255, 1)"></use>
    <use xlink:href="#SvgjsPath1060" x="510" y="570" stroke="rgba(255, 255, 255, 1)"></use>
    <use xlink:href="#SvgjsPath1063" x="570" y="30" stroke="rgba(255, 255, 255, 1)"></use>
    <use xlink:href="#SvgjsPath1060" x="570" y="90" stroke="rgba(255, 255, 255, 1)"></use>
    <use xlink:href="#SvgjsPath1061" x="570" y="150" stroke="rgba(255, 255, 255, 1)"></use>
    <use xlink:href="#SvgjsPath1064" x="570" y="210" stroke="rgba(255, 255, 255, 1)" stroke-width="3"></use>
    <use xlink:href="#SvgjsPath1063" x="570" y="270" stroke="rgba(255, 255, 255, 1)"></use>
    <use xlink:href="#SvgjsPath1061" x="570" y="330" stroke="rgba(255, 255, 255, 1)"></use>
    <use xlink:href="#SvgjsPath1061" x="570" y="390" stroke="rgba(255, 255, 255, 1)"></use>
    <use xlink:href="#SvgjsPath1063" x="570" y="450" stroke="rgba(255, 255, 255, 1)"></use>
    <use xlink:href="#SvgjsPath1060" x="570" y="510" stroke="rgba(255, 255, 255, 1)"></use>
    <use xlink:href="#SvgjsPath1061" x="570" y="570" stroke="rgba(255, 255, 255, 1)"></use>
    <use xlink:href="#SvgjsPath1060" x="630" y="30" stroke="rgba(255, 255, 255, 1)"></use>
    <use xlink:href="#SvgjsPath1064" x="630" y="90" stroke="rgba(255, 255, 255, 1)" stroke-width="3"></use>
    <use xlink:href="#SvgjsPath1060" x="630" y="150" stroke="rgba(255, 255, 255, 1)"></use>
    <use xlink:href="#SvgjsPath1063" x="630" y="210" stroke="rgba(255, 255, 255, 1)"></use>
    <use xlink:href="#SvgjsPath1061" x="630" y="270" stroke="rgba(255, 255, 255, 1)"></use>
    <use xlink:href="#SvgjsPath1064" x="630" y="330" stroke="rgba(255, 255, 255, 1)" stroke-width="3"></use>
    <use xlink:href="#SvgjsPath1063" x="630" y="390" stroke="rgba(255, 255, 255, 1)"></use>
    <use xlink:href="#SvgjsPath1063" x="630" y="450" stroke="rgba(255, 255, 255, 1)"></use>
    <use xlink:href="#SvgjsPath1062" x="630" y="510" stroke="rgba(255, 255, 255, 1)"></use>
    <use xlink:href="#SvgjsPath1064" x="630" y="570" stroke="rgba(255, 255, 255, 1)" stroke-width="3"></use>
    <use xlink:href="#SvgjsPath1061" x="690" y="30" stroke="rgba(255, 255, 255, 1)"></use>
    <use xlink:href="#SvgjsPath1061" x="690" y="90" stroke="rgba(255, 255, 255, 1)"></use>
    <use xlink:href="#SvgjsPath1063" x="690" y="150" stroke="rgba(255, 255, 255, 1)"></use>
    <use xlink:href="#SvgjsPath1061" x="690" y="210" stroke="rgba(255, 255, 255, 1)"></use>
    <use xlink:href="#SvgjsPath1060" x="690" y="270" stroke="rgba(255, 255, 255, 1)"></use>
    <use xlink:href="#SvgjsPath1062" x="690" y="330" stroke="rgba(255, 255, 255, 1)"></use>
    <use xlink:href="#SvgjsPath1063" x="690" y="390" stroke="rgba(255, 255, 255, 1)"></use>
    <use xlink:href="#SvgjsPath1061" x="690" y="450" stroke="rgba(255, 255, 255, 1)"></use>
    <use xlink:href="#SvgjsPath1064" x="690" y="510" stroke="rgba(255, 255, 255, 1)" stroke-width="3"></use>
    <use xlink:href="#SvgjsPath1059" x="690" y="570" stroke="rgba(255, 255, 255, 1)"></use>
  </symbol>
</svg>