<svg xmlns="http://www.w3.org/2000/svg" version="1.1" xmlns:xlink="http://www.w3.org/1999/xlink" xmlns:svgjs="http://svgjs.com/svgjs" width="1440" height="560" preserveAspectRatio="none" viewBox="0 0 1440 560">
  <g mask="url(&quot;#SvgjsMask1009&quot;)" fill="none">
    <rect width="1440" height="560" x="0" y="0" fill="rgba(73, 22, 177, 1)"></rect>
    <path d="M700 96.67C679.32 96.67 657.67 121.63 657.67 140C657.67 154.53 679.05 162.47 700 162.47C719.57 162.47 738.72 154.32 738.72 140C738.72 121.42 719.84 96.67 700 96.67" stroke="rgba(229, 229, 229, 0.3)" stroke-width="2"></path>
    <path d="M1260 137.81C1258.77 137.81 1257.74 138.92 1257.74 140C1257.74 141.06 1258.78 142.09 1260 142.09C1261.54 142.09 1263.26 141.06 1263.26 140C1263.26 138.92 1261.53 137.81 1260 137.81" stroke="rgba(229, 229, 229, 0.3)" stroke-width="2"></path>
    <path d="M420 243.7C365.15 243.7 319.02 242.79 311.11 280C300.29 330.94 342.3 353.14 382.54 420C396.74 443.6 398.75 460.92 420 460.92C448.41 460.92 461.15 449.31 481.86 420C525.07 358.85 564.47 327.43 547.83 280C533.54 239.28 483.51 243.7 420 243.7" stroke="rgba(229, 229, 229, 0.3)" stroke-width="2"></path>
    <path d="M140 140C109.39 140 71.23 48.58 71.23 0C71.23 -21.42 105.62 0 140 0C165.45 0 190.91 -17.83 190.91 0C190.91 52.17 169.23 140 140 140" stroke="rgba(229, 229, 229, 0.3)" stroke-width="2"></path>
    <path d="M352.88 140C340.46 78.65 353.3 54.48 379.42 0C386.86 -15.52 399.71 0 420 0C455.89 0 466.9 -19.7 491.79 0C536.9 35.71 526.38 55.13 560 110.83C568.63 125.13 576.28 125.69 576.28 140C576.28 152.78 573.38 159.82 560 165C495.24 190.07 483.71 208.18 420 200.49C380.15 195.68 360.75 178.9 352.88 140" stroke="rgba(229, 229, 229, 0.3)" stroke-width="2"></path>
    <path d="M700 13.33C688.17 13.33 675.65 3.55 675.65 0C675.65 -3.11 687.83 0 700 0C709.65 0 719.31 -3.01 719.31 0C719.31 3.66 710 13.33 700 13.33" stroke="rgba(229, 229, 229, 0.3)" stroke-width="2"></path>
    <path d="M813.19 140C831.32 126.7 821.58 102.94 840 102.94C876.98 102.94 899.88 105.8 924 140C962.31 194.33 940.76 211.96 964.86 280C968.76 290.99 971.46 298.06 980 298.06C990.69 298.06 1001.59 293.75 1003.33 280C1011.59 214.72 996.6 209.75 1000 140C1003.42 69.75 982.31 40.45 1016.98 0C1042.31 -29.55 1068.49 0 1120 0C1190 0 1190 0 1260 0C1319.11 0 1327.91 -14.67 1378.22 0C1397.91 5.74 1389.61 20.16 1400 40.83C1424.79 90.16 1431.56 87.91 1448.57 140C1470.6 207.49 1483.41 211.44 1478.08 280C1472.53 351.44 1457.79 353.33 1426.81 420C1418.75 437.33 1414.94 448 1400 448C1380.54 448 1380.17 431.95 1358 420C1310.17 394.24 1312.05 382.08 1260 372.58C1193.05 360.36 1182.57 359.59 1120 376.55C1095.07 383.3 1085 400.38 1085 420C1085 435.51 1100.69 436.34 1120 446.81C1188.19 483.76 1196.87 472.91 1260 514.84C1282.09 529.51 1290.43 545.51 1290.43 560C1290.43 568.09 1275.22 560 1260 560C1190 560 1190 560 1120 560C1050 560 1050 560 980 560C970 560 964.66 568.12 960 560C924.45 498.12 938.99 483.34 899.57 420C878.99 386.93 876.17 376.5 840 367.17C776.39 350.76 760.59 391.37 700 368.53C644.99 347.79 608.79 322.29 608.79 280C608.79 240.86 651.62 238.82 700 205.68C753.82 168.82 761.32 178.07 813.19 140" stroke="rgba(229, 229, 229, 0.3)" stroke-width="2"></path>
    <path d="M1260 83.13C1228.11 83.13 1201.29 111.9 1201.29 140C1201.29 167.5 1228.25 194.33 1260 194.33C1299.93 194.33 1344.65 167.61 1344.65 140C1344.65 112.01 1299.79 83.13 1260 83.13" stroke="rgba(229, 229, 229, 0.3)" stroke-width="2"></path>
    <path d="M0 233.33C54.8 178.53 89.93 127.59 140 140C184.07 150.92 147.87 222.9 188.28 280C217.87 321.81 241.91 301.05 280 337.83C314.39 371.05 302.97 381.74 333.24 420C372.97 470.21 370.2 512.72 420 514.77C483.58 517.39 494.75 420.04 560 429.33C634.75 439.97 627.94 495.77 700 554.62C707.94 561.11 720 558.63 720 560C720 561.32 710 560 700 560C630 560 630 560 560 560C490 560 490 560 420 560C350 560 350 560 280 560C250.98 560 243.75 575.39 221.95 560C173.75 525.98 189.66 498.63 140 461.18C96.84 428.63 82.91 447.9 36.3 420C12.91 406 6.62 402.94 0 377.39C-11.53 332.94 0 328.69 0 280C0 256.66 -15.2 248.53 0 233.33" stroke="rgba(229, 229, 229, 0.3)" stroke-width="2"></path>
    <path d="M0 444.5C15.04 444.5 57.04 519.97 57.04 560C57.04 577.72 9.43 579.09 0 560C-19.09 521.34 -13.48 444.5 0 444.5" stroke="rgba(229, 229, 229, 0.3)" stroke-width="2"></path>
    <path d="M140 15C136.72 15 132.63 5.2 132.63 0C132.63 -2.3 136.31 0 140 0C142.73 0 145.45 -1.91 145.45 0C145.45 5.59 143.13 15 140 15" stroke="rgba(229, 229, 229, 0.3)" stroke-width="2"></path>
    <path d="M400.82 140C400.82 96.49 404.29 46.67 420 46.67C437.21 46.67 466.67 102.55 466.67 140C466.67 157.86 441.68 157.28 420 157.28C408.75 157.28 400.82 151.79 400.82 140" stroke="rgba(229, 229, 229, 0.3)" stroke-width="2"></path>
    <path d="M1083.33 140C1072.68 71.94 1068.52 55.37 1083.02 0C1086.85 -14.63 1101.51 0 1120 0C1190 0 1190 0 1260 0C1280.22 0 1300.44 -6.4 1300.44 0C1300.44 7.82 1278.34 11.94 1260 28.44C1200.54 81.94 1188.05 75.86 1144.84 140C1118.05 179.77 1135.1 236.25 1120 236.25C1104.35 236.25 1091.17 190.07 1083.33 140" stroke="rgba(229, 229, 229, 0.3)" stroke-width="2"></path>
    <path d="M661.82 280C661.82 263.62 676.92 254.94 700 248.89C766.01 231.6 778.97 222.18 840 233.33C864.1 237.73 870.27 259.62 870.27 280C870.27 293.52 857.67 297.28 840 301.13C772.54 315.81 764.67 324.73 700 317.06C675.58 314.16 661.82 297.7 661.82 280" stroke="rgba(229, 229, 229, 0.3)" stroke-width="2"></path>
    <path d="M1153.33 280C1153.33 262.67 1205.38 256.9 1260 246.57C1328.71 233.57 1343.77 220.86 1400 233.33C1419.15 237.58 1410.77 257.04 1410.77 280C1410.77 294.38 1413.28 304.82 1400 308C1337.9 322.88 1328.4 323.89 1260 316.13C1205.07 309.89 1153.33 297.45 1153.33 280" stroke="rgba(229, 229, 229, 0.3)" stroke-width="2"></path>
    <path d="M240 420C241.7 403.82 261.37 413.91 280 413.91C283.34 413.91 281.94 416.98 283.94 420C330.4 490.02 378.17 515.6 376.92 560C376.2 585.6 328.46 560 280 560C272.32 560 266.58 566.83 264.63 560C246.58 496.83 234.02 476.86 240 420" stroke="rgba(229, 229, 229, 0.3)" stroke-width="2"></path>
    <path d="M974.04 420C974.04 415.37 976.73 410.97 980 410.97C983.6 410.97 987.78 415.32 987.78 420C987.78 425.22 983.57 430.77 980 430.77C976.7 430.77 974.04 425.27 974.04 420" stroke="rgba(229, 229, 229, 0.3)" stroke-width="2"></path>
    <path d="M0 532C3.65 532 13.83 550.3 13.83 560C13.83 564.3 2.29 564.63 0 560C-4.63 550.63 -3.27 532 0 532" stroke="rgba(229, 229, 229, 0.3)" stroke-width="2"></path>
    <path d="M1070.81 560C1070.81 549.16 1094.15 521.28 1120 521.28C1151.24 521.28 1185 549.59 1185 560C1185 568.95 1152.5 560 1120 560C1095.4 560 1070.81 568.52 1070.81 560" stroke="rgba(229, 229, 229, 0.3)" stroke-width="2"></path>
  </g>
  <defs>
    <mask id="SvgjsMask1009">
      <rect width="1440" height="560" fill="#ffffff"></rect>
    </mask>
  </defs>
</svg>